<?xml version="1.0" encoding="UTF-8"?>
<svg id="Capa_2" data-name="Capa 2" xmlns="http://www.w3.org/2000/svg" viewBox="0 0 256 256">
  <defs>
    <style>
      .cls-1 {
        fill: #91642c;
      }

      .cls-2 {
        fill: #303840;
      }

      .cls-3 {
        fill: #f3f3f3;
      }
    </style>
  </defs>
  <g id="Capa_1-2" data-name="Capa 1">
    <g>
      <rect class="cls-3" width="256" height="256" rx="5.14" ry="5.14"/>
      <path class="cls-2" d="M36.8,92.52c6.39,6.8,16.38,12.78,29.3,12.78s18.61-6.53,18.61-12.64c0-8.33-9.86-10.83-21.11-13.75-15.14-3.75-32.92-8.19-32.92-27.77.01-15.28,13.48-27.09,33.76-27.09,14.45,0,26.11,4.59,34.72,12.92l-9.31,12.08c-7.22-7.22-17.08-10.55-26.8-10.55s-15.69,4.59-15.69,11.53,9.45,9.58,20.41,12.36c15.28,3.89,33.46,8.61,33.46,28.74,0,15.41-10.83,28.6-35.83,28.6-17.08,0-29.44-5.97-37.64-14.72l9.02-12.49h.01Z"/>
      <path class="cls-2" d="M211.97,231.95v-40.41h-48.18v40.41h-16.25v-92.62h16.25v37.91h48.18v-37.91h16.25v92.62h-16.25Z"/>
      <polygon class="cls-1" points="125.51 179.18 125.51 189.52 59.34 189.52 59.34 139.33 69.68 139.33 69.68 179.18 125.51 179.18"/>
      <polygon class="cls-1" points="122.12 75.9 122.12 65.56 193.05 65.56 193.05 115.77 182.7 115.77 182.7 75.9 122.12 75.9"/>
    </g>
  </g>
</svg>