<svg width="620" height="141" viewBox="0 0 620 141" fill="none" xmlns="http://www.w3.org/2000/svg">
<path d="M382.366 95.2577H377.711L362.315 27.4485C366.791 28.8836 370.729 29.4218 373.594 29.4218C377.89 29.4218 380.218 28.5249 380.397 28.3455C381.292 27.9867 381.65 26.9103 381.292 26.0134C380.934 25.1165 379.859 24.5783 378.964 24.9371C378.785 24.9371 368.76 28.7042 351.574 18.4791C333.672 7.71569 317.918 7.5363 312.368 7.89508V1.79585C312.368 0.71951 311.652 0.00195312 310.578 0.00195312C309.504 0.00195312 308.788 0.71951 308.788 1.79585V7.89508C303.238 7.5363 287.484 7.71569 269.582 18.4791C252.396 28.7042 242.371 24.9371 242.192 24.9371C241.297 24.5783 240.222 24.9371 239.864 25.834C239.506 26.731 239.864 27.8073 240.759 28.1661C240.938 28.1661 243.266 29.2424 247.562 29.2424C250.427 29.2424 254.186 28.8836 258.841 27.2691L243.445 95.0783H238.79C237.716 95.0783 237 95.7958 237 96.8722C237 101.536 240.759 105.124 245.235 105.124H277.101C281.755 105.124 285.336 101.357 285.336 96.8722C285.336 95.7958 284.62 95.0783 283.546 95.0783H278.891L263.137 25.6546C265.644 24.5783 268.329 23.3226 271.193 21.5287C288.2 11.3035 303.775 11.1241 308.609 11.4829V119.116H294.824C290.349 119.116 286.768 122.525 286.589 127.01H283.725C282.651 127.01 281.934 127.727 281.934 128.803V139.208C281.934 140.284 282.651 141.002 283.725 141.002H337.431C338.505 141.002 339.221 140.284 339.221 139.208V128.803C339.221 127.727 338.505 127.01 337.431 127.01H335.104C334.925 122.704 331.345 119.116 326.869 119.116H312.368V11.4829C317.202 11.1241 332.598 11.3035 349.784 21.5287C352.648 23.3226 355.333 24.5783 357.84 25.6546L342.086 95.0783H337.431C336.357 95.0783 335.641 95.7958 335.641 96.8722C335.641 101.536 339.401 105.124 343.876 105.124H375.742C380.397 105.124 383.977 101.357 383.977 96.8722C384.156 96.1546 383.261 95.2577 382.366 95.2577ZM277.28 101.895H245.414C243.445 101.895 241.834 100.639 241.118 99.0248H281.755C280.86 100.639 279.249 101.895 277.28 101.895ZM247.025 95.2577L261.168 33.0096L275.311 95.2577H247.025ZM335.641 137.594H285.515V130.777H335.641V137.594ZM326.869 123.063C329.375 123.063 331.345 125.036 331.524 127.368H290.349C290.528 125.036 292.497 123.063 295.003 123.063H326.869ZM359.809 33.0096L373.952 95.2577H345.666L359.809 33.0096ZM375.742 101.895H343.876C341.907 101.895 340.296 100.639 339.58 99.0248H380.218C379.501 100.639 377.711 101.895 375.742 101.895Z" fill="black"/>
<path d="M128.832 118.178H96.8019C92.3284 118.178 88.7496 121.576 88.5707 126.049H85.7076C84.634 126.049 83.9182 126.764 83.9182 127.838V138.213C83.9182 139.286 84.634 140.002 85.7076 140.002H139.211C140.284 140.002 141 139.286 141 138.213V127.838C141 126.764 140.284 126.049 139.211 126.049H136.884C136.705 121.576 133.127 118.178 128.832 118.178ZM96.8019 121.755H128.653C131.158 121.755 133.127 123.723 133.306 126.049H92.1495C92.5073 123.544 94.4757 121.755 96.8019 121.755ZM137.6 136.245H87.497V129.448H137.421V136.245H137.6Z" fill="black"/>
<path d="M9.47922 118.535C9.8371 118.535 10.3739 118.535 10.7318 118.535C13.237 118.535 15.5632 117.641 17.5315 116.031L89.1074 57.7131L95.1914 65.7631C93.0441 67.9097 92.6862 71.4875 94.4756 73.9919C95.5493 75.2442 96.9808 76.1386 98.5912 76.4964C98.9491 76.4964 99.1281 76.4964 99.4859 76.4964C100.917 76.4964 102.17 76.1386 103.244 75.2442L135.632 50.5575C138.316 48.4108 138.853 44.4753 136.884 41.792C135.811 40.5397 134.379 39.6453 132.769 39.2875C131.337 39.1086 129.906 39.4664 128.832 40.182L106.107 10.6653C107.18 9.77086 107.717 8.51864 107.896 7.08753C108.075 5.47753 107.717 3.68864 106.644 2.43642C104.496 -0.246913 100.56 -0.783581 97.8755 1.1842L65.6663 25.8709C64.4137 26.9442 63.519 28.3753 63.1612 29.9853C62.9822 31.5953 63.3401 33.3842 64.4137 34.6364C65.4874 35.8886 66.9189 36.7831 68.5294 37.1408C68.8872 37.1408 69.0662 37.1408 69.4241 37.1408C70.4977 37.1408 71.5713 36.7831 72.645 36.2464L80.6973 46.9797L4.64785 99.2153C2.32163 100.825 0.711171 103.33 0.174351 106.192C-0.362468 109.054 0.353292 111.916 2.14269 114.242C3.93209 116.746 6.43725 118.177 9.47922 118.535ZM75.508 34.0997L103.423 12.812L125.79 42.1497L97.6965 63.4375L75.508 34.0997ZM131.695 42.8653C131.874 42.8653 131.874 42.8653 132.053 42.8653C132.769 43.0442 133.484 43.402 133.842 43.9386C134.737 45.1908 134.558 46.8008 133.306 47.6953L100.917 72.3819C100.381 72.7397 99.6649 72.9186 98.9491 72.9186C98.2334 72.7397 97.5176 72.3819 97.1597 71.8453C96.265 70.5931 96.444 68.9831 97.6965 68.0886L130.085 43.402C130.621 43.0442 131.158 42.8653 131.695 42.8653ZM69.0662 33.3842C68.3504 33.2053 67.6347 32.8475 67.2768 32.3108C66.9189 31.7742 66.74 31.0586 66.74 30.3431C66.9189 29.6275 67.2768 28.912 67.8136 28.5542L100.202 4.04642C100.739 3.68864 101.275 3.50975 101.812 3.50975C102.707 3.50975 103.423 3.86753 103.959 4.58308C104.317 5.11975 104.496 5.8353 104.496 6.55086C104.317 7.26642 103.959 7.98197 103.423 8.33975L71.0345 33.0264C70.4977 33.3842 69.7819 33.5631 69.0662 33.3842ZM3.75315 106.907C4.11103 104.94 5.18467 103.33 6.61618 102.256L83.0235 49.8419L86.7812 54.8508L15.2053 113.347C13.7738 114.6 11.8054 115.136 10.016 114.957C8.0477 114.779 6.43724 113.705 5.18467 112.274C3.93209 110.843 3.39527 108.875 3.75315 106.907Z" fill="black"/>
<path d="M620 70.3709C620.019 66.8844 618.685 63.598 616.244 61.1165C614.083 58.9215 611.284 57.5948 608.262 57.3036L600.514 38.3136C602.47 35.9914 603.542 33.0844 603.55 30.0037C603.558 26.5258 602.212 23.2428 599.759 20.7647C594.977 15.9308 587.349 15.608 582.222 19.8242L563.313 11.8757C563.055 8.85051 561.757 6.03671 559.584 3.85214C557.13 1.38602 553.858 0.0187993 550.371 0C546.898 0.00683602 543.596 1.31424 541.117 3.75473C538.921 5.91483 537.594 8.71475 537.304 11.7367L518.312 19.4863C513.229 15.2156 505.597 15.4594 500.765 20.24C498.286 22.6924 496.905 25.9601 496.877 29.438C496.852 32.5188 497.893 35.4367 499.825 37.7791L491.874 56.691C485.262 57.2658 480.037 62.8321 480 69.6291C479.981 73.1156 481.315 76.402 483.756 78.8835C485.917 81.0785 488.716 82.4052 491.738 82.6964L499.486 101.686C497.53 104.009 496.458 106.916 496.45 109.996C496.442 113.474 497.788 116.757 500.241 119.235C502.8 121.823 506.175 123.118 509.546 123.118C512.474 123.118 515.396 122.136 517.779 120.176L536.687 128.124C536.945 131.149 538.243 133.963 540.416 136.148C542.87 138.614 546.142 139.981 549.629 140C549.654 140 549.678 140 549.703 140C553.162 140 556.421 138.669 558.883 136.245C561.079 134.085 562.406 131.285 562.696 128.263L581.689 120.514C584.088 122.53 587.054 123.544 590.028 123.544C593.353 123.544 596.685 122.284 599.235 119.76C601.714 117.308 603.095 114.04 603.123 110.562C603.148 107.481 602.107 104.563 600.175 102.221L608.126 83.309C614.738 82.7342 619.963 77.1679 620 70.3709ZM590.187 97.488C590.175 97.4863 590.164 97.4863 590.153 97.4863C586.687 97.4863 583.419 98.833 580.947 101.277C576.443 105.736 575.856 112.671 579.214 117.743L562.529 124.551C562.05 122.034 560.832 119.715 558.98 117.853C556.527 115.387 553.254 114.019 549.767 114.001C546.297 114.04 542.992 115.315 540.512 117.755C538.641 119.596 537.4 121.902 536.893 124.414L520.282 117.431C523.693 112.393 523.181 105.453 518.723 100.949C514.263 96.4434 507.33 95.8578 502.258 99.2145L495.447 82.5218C501.421 81.372 505.967 76.1037 506.001 69.7659C506.035 63.4288 501.546 58.1114 495.584 56.8977L502.568 40.2866C504.687 41.7273 507.187 42.5056 509.813 42.512C509.825 42.5137 509.836 42.5137 509.847 42.5137C513.313 42.5137 516.581 41.167 519.053 38.7231C523.557 34.2644 524.144 27.3292 520.786 22.2566L537.471 15.4486C537.95 17.966 539.168 20.2853 541.02 22.1473C543.473 24.6134 546.746 25.9806 550.233 25.9994C550.258 25.9994 550.282 25.9994 550.307 25.9994C553.767 25.9994 557.025 24.6681 559.488 22.2447C561.359 20.4036 562.6 18.0978 563.107 15.586L579.718 22.5688C576.307 27.6072 576.819 34.5474 581.277 39.0512C583.836 41.637 587.212 42.9342 590.583 42.9342C593.085 42.9342 595.582 42.2172 597.743 40.787L604.553 57.4782C598.579 58.628 594.033 63.8963 593.999 70.2341C593.965 76.5712 598.454 81.8886 604.416 83.1022L597.432 99.7134C595.313 98.2727 592.813 97.4944 590.187 97.488ZM616.5 70.3538C616.472 75.609 612.214 79.8662 606.999 79.8662C606.982 79.8662 606.966 79.8662 606.949 79.8662C601.71 79.8372 597.471 75.5253 597.499 70.2512C597.527 64.996 601.784 60.7388 607 60.7388C607.017 60.7388 607.034 60.7388 607.05 60.7388C609.586 60.7525 611.965 61.7574 613.749 63.5724C615.537 65.389 616.513 67.7971 616.5 70.3538ZM597.271 23.2257C599.069 25.0441 600.056 27.447 600.05 29.9951C600.044 32.5399 599.047 34.9239 597.245 36.7065C593.52 40.3911 587.473 40.3381 583.766 36.5902C580.056 32.8424 580.068 26.7941 583.791 23.1095C585.633 21.2876 588.041 20.3801 590.454 20.3801C592.922 20.3801 595.395 21.3304 597.271 23.2257ZM543.572 6.24991C545.375 4.47423 547.762 3.50009 550.298 3.50009C550.316 3.50009 550.334 3.50009 550.352 3.50009C552.909 3.51376 555.306 4.51525 557.103 6.32169C558.898 8.12471 559.879 10.5156 559.865 13.0518C559.852 15.5863 558.846 17.9653 557.033 19.7495C555.216 21.5371 552.777 22.5352 550.252 22.4993C547.695 22.4857 545.298 21.4842 543.501 19.6777C541.706 17.8747 540.725 15.4838 540.739 12.9476C540.752 10.4131 541.758 8.03413 543.572 6.24991ZM503.227 22.7283C505.096 20.8792 507.537 19.9546 509.972 19.9546C512.419 19.9546 514.86 20.8877 516.707 22.754C520.392 26.4779 520.339 32.5245 516.591 36.2348C514.779 38.0275 512.386 39.0136 509.846 39.0136C509.838 39.0136 509.83 39.0136 509.822 39.0136C507.278 39.0068 504.894 38.0104 503.111 36.2074C501.327 34.4044 500.356 32.0118 500.377 29.467C500.397 26.9189 501.41 24.5262 503.227 22.7283ZM483.5 69.6462C483.528 64.391 487.786 60.1338 493.001 60.1338C493.018 60.1338 493.034 60.1338 493.051 60.1338C498.29 60.1628 502.529 64.4747 502.501 69.7488C502.473 75.004 498.216 79.2612 493 79.2612C492.991 79.2612 492.983 79.2612 492.974 79.2612C492.967 79.261 492.96 79.2613 492.954 79.2612H492.95C490.414 79.2475 488.035 78.2426 486.251 76.4276C484.463 74.611 483.487 72.2029 483.5 69.6462ZM502.729 116.774C500.931 114.956 499.944 112.553 499.95 110.005C499.956 107.46 500.953 105.076 502.755 103.294C504.596 101.472 507.004 100.564 509.417 100.564C511.886 100.564 514.359 101.514 516.234 103.41C519.941 107.155 519.931 113.196 516.216 116.882L516.214 116.884L516.209 116.891C512.483 120.575 506.438 120.522 502.729 116.774ZM556.428 133.75C554.612 135.538 552.189 136.45 549.648 136.5C547.091 136.486 544.694 135.485 542.897 133.678C541.102 131.875 540.121 129.484 540.135 126.948C540.148 124.414 541.154 122.035 542.967 120.25C544.771 118.475 547.158 117.501 549.693 117.501C549.711 117.501 549.73 117.501 549.748 117.501C552.305 117.514 554.702 118.516 556.499 120.322C558.294 122.125 559.275 124.516 559.261 127.052C559.248 129.587 558.242 131.966 556.428 133.75ZM596.773 117.272C593.025 120.98 586.978 120.968 583.293 117.246C579.608 113.522 579.661 107.476 583.409 103.765C585.221 101.972 587.614 100.986 590.154 100.986C590.161 100.986 590.17 100.986 590.178 100.986C592.722 100.993 595.106 101.99 596.889 103.793C598.673 105.596 599.644 107.988 599.623 110.533C599.603 113.081 598.59 115.474 596.773 117.272Z" fill="black"/>
<path d="M565.803 63.9791L556.966 61.002L551.405 53.5164C550.743 52.6277 549.257 52.6277 548.595 53.5164L543.034 61.002L534.197 63.9791C533.672 64.1551 533.262 64.5687 533.091 65.0968C532.92 65.6232 533.008 66.1991 533.329 66.6503L538.728 74.2538L538.828 83.5765C538.834 84.1302 539.102 84.6481 539.549 84.9728C539.998 85.2992 540.574 85.3966 541.101 85.2274L550 82.4417L558.899 85.2274C559.07 85.2821 559.246 85.3077 559.422 85.3077C559.787 85.3077 560.148 85.1932 560.45 84.9728C560.898 84.6481 561.166 84.1302 561.172 83.5765L561.272 74.2538L566.671 66.6503C566.992 66.1991 567.08 65.6232 566.909 65.0968C566.738 64.5687 566.328 64.1551 565.803 63.9791ZM558.101 72.6729C557.895 72.9634 557.782 73.3104 557.778 73.6676L557.697 81.1839L550.523 78.9382C550.353 78.8852 550.176 78.8579 550 78.8579C549.824 78.8579 549.647 78.8852 549.477 78.9382L542.303 81.1839L542.222 73.6676C542.218 73.3104 542.105 72.9634 541.899 72.6729L537.546 66.5443L544.67 64.1432C545.008 64.0304 545.304 63.815 545.516 63.5296L550 57.4951L554.483 63.5296C554.696 63.815 554.992 64.0304 555.329 64.1432L562.453 66.5443L558.101 72.6729Z" fill="black"/>
<path d="M550 39.6204C533.249 39.6204 519.621 53.2481 519.621 70C519.621 86.7519 533.249 100.38 550 100.38C566.751 100.38 580.378 86.7519 580.378 70C580.378 53.2481 566.751 39.6204 550 39.6204ZM550 96.8796C535.179 96.8796 523.121 84.8207 523.121 70C523.121 55.1793 535.179 43.1204 550 43.1204C564.82 43.1204 576.878 55.1793 576.878 70C576.878 84.8207 564.82 96.8796 550 96.8796Z" fill="black"/>
</svg>
